<?xml version="1.0" standalone="no"?>
<!DOCTYPE svg PUBLIC "-//W3C//DTD SVG 1.1//EN" "http://www.w3.org/Graphics/SVG/1.1/DTD/svg11.dtd" >
<svg xmlns="http://www.w3.org/2000/svg" xmlns:xlink="http://www.w3.org/1999/xlink" version="1.1">
<metadata>
Created by FontForge 20150913 at Tue May  3 02:52:30 2016
 By Jimmy Wärting
8-bit Operator (c) 2009 - 2014 Grand Chaos Productions.
Based on spritesheet by Leafia_Barrett.
Modified by theFIZZYnator.
Undertale is copyright and intellectual property of Toby Fox.
</metadata>
<defs>
<font id="DeterminationSans" horiz-adv-x="525" >
  <font-face 
    font-family="Determination Sans"
    font-weight="400"
    font-stretch="normal"
    units-per-em="1000"
    panose-1="0 0 0 0 0 0 0 0 0 0"
    ascent="800"
    descent="-200"
    x-height="525"
    cap-height="675"
    bbox="0 -225 1050 975"
    underline-thickness="75"
    underline-position="-112"
    stemh="75"
    stemv="150"
    unicode-range="U+0020-1F494"
  />
<missing-glyph horiz-adv-x="600" 
d="M75 -150h450v1050h-450v-1050zM0 -225v1200h600v-1200h-600z" />
    <glyph glyph-name=".notdef" horiz-adv-x="600" 
d="M75 -150h450v1050h-450v-1050zM0 -225v1200h600v-1200h-600z" />
    <glyph glyph-name="space" unicode=" " horiz-adv-x="225" 
 />
    <glyph glyph-name="exclam" unicode="!" horiz-adv-x="375" 
d="M225 0h-150v150h150v-150zM225 225h-150v225h-75v225h75v75h150v-75h75v-225h-75v-225z" />
    <glyph glyph-name="quotedbl" unicode="&#x22;" horiz-adv-x="450" 
d="M0 525v150h150v-225h-75v75h-75zM300 525h-75v150h150v-225h-75v75zM75 450v-75h-75v75h75zM300 450v-75h-75v75h75z" />
    <glyph glyph-name="numbersign" unicode="#" horiz-adv-x="600" 
d="M450 450v-225h75v-75h-75v-150h-150v150h-75v-150h-150v150h-75v75h75v225h-75v75h75v150h150v-150h75v150h150v-150h75v-75h-75zM300 225v225h-75v-225h75z" />
    <glyph glyph-name="dollar" unicode="$" 
d="M300 0v-150h-150v150h-75v75h-75v150h150v-150h150v225h-225v75h-75v225h75v75h75v150h150v-150h75v-75h75v-150h-150v150h-150v-225h225v-75h75v-225h-75v-75h-75z" />
    <glyph glyph-name="percent" unicode="%" horiz-adv-x="600" 
d="M450 225h-150v75h150v-75zM450 0h-150v75h150v-75zM225 375h-150v75h150v-75zM225 600h-150v75h150v-75zM300 450h-75v150h75v-150zM300 75h-75v150h75v-150zM75 450h-75v150h75v-150zM525 75h-75v150h75v-150zM450 525v-75h-75v-75h-75v-75h-75v-75h-75v-75h-75v75h75
v75h75v75h75v75h75v75h75zM450 525v75h75v-75h-75zM75 150v-75h-75v75h75z" />
    <glyph glyph-name="ampersand" unicode="&#x26;" horiz-adv-x="600" 
d="M150 675h225v-75h75v-150h-75v-75h-75v-75h225v-75h-75v-150h75v-75h-150v75h-75v-75h-225v75h-75v225h75v75h75v75h-75v150h75v75zM300 600h-75v-150h75v150zM300 75v150h-75v75h-75v-225h150z" />
    <glyph glyph-name="quotesingle" unicode="'" horiz-adv-x="225" 
d="M0 525v150h150v-225h-75v75h-75zM75 450v-75h-75v75h75z" />
    <glyph glyph-name="parenleft" unicode="(" horiz-adv-x="375" 
d="M300 675v-75h-75v-75h-75v-375h75v-75h75v-75h-150v75h-75v75h-75v375h75v75h75v75h150z" />
    <glyph glyph-name="parenright" unicode=")" horiz-adv-x="375" 
d="M150 675v-75h75v-75h75v-375h-75v-75h-75v-75h-150v75h75v75h75v375h-75v75h-75v75h150z" />
    <glyph glyph-name="asterisk" unicode="*" horiz-adv-x="675" 
d="M150 375v75h-75v75h150v-75h150v75h150v-75h-75v-75h150v-75h-150v-75h75v-75h-150v75h-150v-75h-150v75h75v75h-150v75h150z" />
    <glyph glyph-name="plus" unicode="+" 
d="M0 300v75h150v150h150v-150h150v-75h-150v-150h-150v150h-150z" />
    <glyph glyph-name="comma" unicode="," horiz-adv-x="225" 
d="M75 -75v-75h-75v75h75zM75 -75v75h-75v150h150v-225h-75z" />
    <glyph glyph-name="hyphen" unicode="-" horiz-adv-x="375" 
d="M0 300v75h300v-75h-300z" />
    <glyph glyph-name="period" unicode="." horiz-adv-x="225" 
d="M150 0h-150v150h150v-150z" />
    <glyph glyph-name="slash" unicode="/" 
d="M0 -75v150h75v150h75v150h75v150h75v150h150v-150h-75v-150h-75v-150h-75v-150h-75v-150h-150z" />
    <glyph glyph-name="zero" unicode="0" 
d="M225 300v-150h-75v-75h150v225h-75zM300 525v75h-150v-225h75v150h75zM375 75v-75h-300v75h-75v525h75v75h300v-75h75v-525h-75z" />
    <glyph glyph-name="one" unicode="1" 
d="M150 525h-150v75h150v75h150v-600h150v-75h-450v75h150v450z" />
    <glyph glyph-name="two" unicode="2" 
d="M75 150v75h75v75h75v75h75v225h-150v-150h-150v150h75v75h300v-75h75v-225h-75v-75h-75v-75h-75v-75h-75v-75h300v-75h-450v150h75z" />
    <glyph glyph-name="three" unicode="3" 
d="M0 75v150h150v-150h150v225h-150v75h150v225h-150v-150h-150v150h75v75h300v-75h75v-225h-75v-75h75v-225h-75v-75h-300v75h-75z" />
    <glyph glyph-name="four" unicode="4" 
d="M300 225v225h-75v-75h-75v-150h150zM450 0h-150v150h-300v225h75v75h75v75h75v75h75v75h150v-675z" />
    <glyph glyph-name="five" unicode="5" 
d="M450 600h-300v-225h225v-75h75v-225h-75v-75h-300v75h-75v150h150v-150h150v225h-300v375h450v-75z" />
    <glyph glyph-name="six" unicode="6" 
d="M75 525v75h150v-75h-150zM150 375h225v-75h75v-225h-75v-75h-300v75h-75v450h150v-150zM150 300v-225h150v225h-150zM150 600v75h300v-75h-300z" />
    <glyph glyph-name="seven" unicode="7" 
d="M300 600h-300v75h450v-225h-75v-150h-75v-300h-150v300h75v150h75v150z" />
    <glyph glyph-name="eight" unicode="8" 
d="M150 375h150v225h-150v-225zM150 300v-225h150v225h-150zM450 375h-75v-75h75v-225h-75v-75h-300v75h-75v225h75v75h-75v225h75v75h300v-75h75v-225z" />
    <glyph glyph-name="nine" unicode="9" 
d="M300 375v225h-150v-225h150zM300 300h-225v75h-75v225h75v75h300v-75h75v-450h-75v-75h-75v-75h-225v75h150v75h75v150z" />
    <glyph glyph-name="colon" unicode=":" horiz-adv-x="225" 
d="M150 0h-150v150h150v-150zM150 375h-150v150h150v-150z" />
    <glyph glyph-name="semicolon" unicode=";" horiz-adv-x="225" 
d="M150 375h-150v150h150v-150zM0 0v150h150v-225h-75v75h-75zM75 -75h-75v-75h75v75z" />
    <glyph glyph-name="less" unicode="&#x3c;" horiz-adv-x="450" 
d="M300 600v75h75v-150h-75v-75h-75v-75h-75v-75h75v-75h75v-75h75v-150h-75v75h-75v75h-75v75h-75v75h-75v75h75v75h75v75h75v75h75z" />
    <glyph glyph-name="equal" unicode="=" 
d="M0 225v75h450v-75h-450zM0 375v75h450v-75h-450z" />
    <glyph glyph-name="greater" unicode="&#x3e;" horiz-adv-x="450" 
d="M150 600v-75h75v-75h75v-75h75v-75h-75v-75h-75v-75h-75v-75h-75v-75h-75v150h75v75h75v75h75v75h-75v75h-75v75h-75v150h75v-75h75z" />
    <glyph glyph-name="question" unicode="?" 
d="M300 0h-150v150h150v-150zM150 225v75h75v75h75v225h-150v-150h-150v150h75v75h300v-75h75v-225h-75v-75h-75v-75h-150z" />
    <glyph glyph-name="at" unicode="@" 
d="M150 75h300v-75h-375v75h-75v525h75v75h300v-75h75v-375h-225v225h75v150h-150v-525z" />
    <glyph glyph-name="A" unicode="A" 
d="M150 300h150v300h-150v-300zM300 225h-150v-225h-150v600h75v75h300v-75h75v-600h-150v225z" />
    <glyph glyph-name="B" unicode="B" 
d="M375 375v-75h75v-225h-75v-75h-375v675h375v-75h75v-225h-75zM150 375h150v225h-150v-225zM150 300v-225h150v225h-150z" />
    <glyph glyph-name="C" unicode="C" 
d="M300 75v150h150v-150h-75v-75h-300v75h-75v525h75v75h300v-75h75v-150h-150v150h-150v-525h150z" />
    <glyph glyph-name="D" unicode="D" 
d="M150 75h150v525h-150v-525zM375 75v-75h-375v675h375v-75h75v-525h-75z" />
    <glyph glyph-name="E" unicode="E" 
d="M150 75h300v-75h-450v675h450v-75h-300v-225h225v-75h-225v-225z" />
    <glyph glyph-name="F" unicode="F" 
d="M150 375h225v-75h-225v-300h-150v675h450v-75h-300v-225z" />
    <glyph glyph-name="G" unicode="G" 
d="M375 600h75v-150h-150v150h-150v-525h150v225h-75v75h225v-300h-75v-75h-300v75h-75v525h75v75h300v-75z" />
    <glyph glyph-name="H" unicode="H" 
d="M150 300v-300h-150v675h150v-300h150v300h150v-675h-150v300h-150z" />
    <glyph glyph-name="I" unicode="I" 
d="M150 600h-150v75h450v-75h-150v-525h150v-75h-450v75h150v525z" />
    <glyph glyph-name="J" unicode="J" 
d="M300 600h-150v75h300v-600h-75v-75h-300v75h-75v150h150v-150h150v525z" />
    <glyph glyph-name="K" unicode="K" 
d="M150 300v-300h-150v675h150v-300h75v150h75v150h150v-150h-75v-150h-75v-75h75v-150h75v-150h-150v150h-75v150h-75z" />
    <glyph glyph-name="L" unicode="L" 
d="M150 75h300v-75h-450v675h150v-600z" />
    <glyph glyph-name="M" unicode="M" horiz-adv-x="600" 
d="M0 0v675h75v-75h75v-75h75v-75h75v75h75v75h75v75h75v-675h-150v375h-75v-75h-75v75h-75v-375h-150z" />
    <glyph glyph-name="N" unicode="N" 
d="M150 375v-375h-150v675h150v-150h75v-150h-75zM225 375h75v300h150v-675h-150v225h-75v150z" />
    <glyph glyph-name="O" unicode="O" 
d="M150 75h150v525h-150v-525zM375 75v-75h-300v75h-75v525h75v75h300v-75h75v-525h-75z" />
    <glyph glyph-name="P" unicode="P" 
d="M150 300v-300h-150v675h375v-75h75v-225h-75v-75h-225zM150 375h150v225h-150v-225z" />
    <glyph glyph-name="Q" unicode="Q" 
d="M300 600h-150v-525h150v525zM75 600v75h300v-75h75v-525h-75v-75h-75v-75h150v-75h-225v75h-75v75h-75v75h-75v525h75z" />
    <glyph glyph-name="R" unicode="R" 
d="M150 375h150v225h-150v-225zM150 300v-300h-150v675h375v-75h75v-225h-75v-75h75v-300h-150v300h-150z" />
    <glyph glyph-name="S" unicode="S" 
d="M375 600h75v-150h-150v150h-150v-225h225v-75h75v-225h-75v-75h-300v75h-75v150h150v-150h150v225h-225v75h-75v225h75v75h300v-75z" />
    <glyph glyph-name="T" unicode="T" 
d="M150 600h-150v75h450v-75h-150v-600h-150v600z" />
    <glyph glyph-name="U" unicode="U" 
d="M75 75h-75v600h150v-600h150v600h150v-600h-75v-75h-300v75z" />
    <glyph glyph-name="V" unicode="V" 
d="M75 300h-75v375h150v-375h150v375h150v-375h-75v-150h-75v-150h-150v150h-75v150z" />
    <glyph glyph-name="W" unicode="W" horiz-adv-x="600" 
d="M300 150h-75v375h75v-375zM300 150h75v525h150v-525h-75v-150h-150v150zM225 0h-150v150h-75v525h150v-525h75v-150z" />
    <glyph glyph-name="X" unicode="X" 
d="M75 525h-75v150h150v-150h150v150h150v-150h-75v-150h-75v-75h75v-150h75v-150h-150v150h-150v-150h-150v150h75v150h75v75h-75v150z" />
    <glyph glyph-name="Y" unicode="Y" 
d="M75 375h-75v300h150v-300h150v300h150v-300h-75v-75h-75v-300h-150v300h-75v75z" />
    <glyph glyph-name="Z" unicode="Z" 
d="M300 600h-300v75h450v-225h-75v-75h-75v-75h-75v-75h-75v-150h300v-75h-450v225h75v75h75v75h75v75h75v150z" />
    <glyph glyph-name="bracketleft" unicode="[" horiz-adv-x="375" 
d="M150 75h150v-75h-300v675h300v-75h-150v-525z" />
    <glyph glyph-name="backslash" unicode="\" horiz-adv-x="375" 
d="M150 0v225h-75v225h-75v225h150v-225h75v-225h75v-225h-150z" />
    <glyph glyph-name="bracketright" unicode="]" horiz-adv-x="375" 
d="M150 600h-150v75h300v-675h-300v75h150v525z" />
    <glyph glyph-name="asciicircum" unicode="^" 
d="M75 600h75v75h150v-75h75v-75h75v-150h-75v75h-75v75h-150v-75h-75v-75h-75v150h75v75z" />
    <glyph glyph-name="underscore" unicode="_" 
d="M0 -150v75h450v-75h-450z" />
    <glyph glyph-name="grave" unicode="`" horiz-adv-x="300" 
d="M225 600v-75h-150v75h-75v75h150v-75h75z" />
    <glyph glyph-name="a" unicode="a" 
d="M150 75h150v150h-150v-150zM75 450v75h300v-75h75v-450h-375v75h-75v150h75v75h225v150h-150v-75h-150v75h75z" />
    <glyph glyph-name="b" unicode="b" 
d="M375 75v-75h-375v675h150v-150h225v-75h75v-375h-75zM150 75h150v375h-150v-375z" />
    <glyph glyph-name="c" unicode="c" 
d="M300 75v150h150v-150h-75v-75h-300v75h-75v375h75v75h300v-75h75v-150h-150v150h-150v-375h150z" />
    <glyph glyph-name="d" unicode="d" 
d="M150 75h150v375h-150v-375zM450 0h-375v75h-75v375h75v75h225v150h150v-675z" />
    <glyph glyph-name="e" unicode="e" 
d="M150 300h150v150h-150v-150zM375 75v-75h-300v75h-75v375h75v75h300v-75h75v-225h-300v-150h150v75h150v-75h-75z" />
    <glyph glyph-name="f" unicode="f" 
d="M150 450v150h75v75h225v-75h-150v-150h150v-75h-150v-375h-150v375h-150v75h150z" />
    <glyph glyph-name="g" unicode="g" 
d="M375 -150v-75h-300v75h-75v75h150v-75h150v150h-225v75h-75v375h75v75h375v-675h-75zM300 450h-150v-375h150v375z" />
    <glyph glyph-name="h" unicode="h" 
d="M375 450h75v-450h-150v450h-150v-450h-150v675h150v-150h225v-75z" />
    <glyph glyph-name="i" unicode="i" 
d="M150 450h-150v75h300v-450h150v-75h-450v75h150v375zM300 750v-150h-150v150h150z" />
    <glyph glyph-name="j" unicode="j" 
d="M300 450h-150v75h300v-675h-75v-75h-300v75h-75v75h150v-75h150v600zM450 750v-150h-150v150h150z" />
    <glyph glyph-name="k" unicode="k" 
d="M150 225v-225h-150v675h150v-375h75v75h75v150h150v-150h-75v-75h-75v-75h75v-75h75v-150h-150v150h-75v75h-75z" />
    <glyph glyph-name="l" unicode="l" 
d="M150 600h-150v75h300v-600h150v-75h-450v75h150v525z" />
    <glyph glyph-name="m" unicode="m" horiz-adv-x="600" 
d="M150 375v-375h-150v525h225v-75h75v75h150v-75h75v-450h-150v375h-75v-300h-75v300h-75z" />
    <glyph glyph-name="n" unicode="n" 
d="M150 450v-450h-150v525h375v-75h75v-450h-150v450h-150z" />
    <glyph glyph-name="o" unicode="o" 
d="M150 75h150v375h-150v-375zM375 75v-75h-300v75h-75v375h75v75h300v-75h75v-375h-75z" />
    <glyph glyph-name="p" unicode="p" 
d="M150 0v-225h-150v750h375v-75h75v-375h-75v-75h-225zM150 75h150v375h-150v-375z" />
    <glyph glyph-name="q" unicode="q" 
d="M300 0h-225v75h-75v375h75v75h375v-750h-150v225zM150 75h150v375h-150v-375z" />
    <glyph glyph-name="r" unicode="r" 
d="M150 450v-450h-150v525h375v-75h75v-150h-150v150h-150z" />
    <glyph glyph-name="s" unicode="s" 
d="M375 450h75v-75h-150v75h-150v-150h225v-75h75v-150h-75v-75h-300v75h-75v75h150v-75h150v150h-225v75h-75v150h75v75h300v-75z" />
    <glyph glyph-name="t" unicode="t" 
d="M0 450v75h150v150h150v-150h150v-75h-150v-375h150v-75h-225v75h-75v375h-150z" />
    <glyph glyph-name="u" unicode="u" 
d="M300 75v450h150v-525h-375v75h-75v450h150v-450h150z" />
    <glyph glyph-name="v" unicode="v" 
d="M75 300h-75v225h150v-225h150v225h150v-225h-75v-150h-75v-150h-150v150h-75v150z" />
    <glyph glyph-name="w" unicode="w" horiz-adv-x="600" 
d="M300 150h-75v300h75v-300zM300 150h75v375h150v-375h-75v-150h-150v150zM225 0h-150v150h-75v375h150v-375h75v-150z" />
    <glyph glyph-name="x" unicode="x" 
d="M75 375h-75v150h150v-150h150v150h150v-150h-75v-75h-75v-75h75v-75h75v-150h-150v150h-150v-150h-150v150h75v75h75v75h-75v75z" />
    <glyph glyph-name="y" unicode="y" 
d="M150 -150h150v150h-225v75h-75v450h150v-450h150v450h150v-675h-75v-75h-300v75h-75v75h150v-75z" />
    <glyph glyph-name="z" unicode="z" 
d="M300 450h-300v75h450v-150h-75v-75h-75v-75h-75v-75h-75v-75h300v-75h-450v150h75v75h75v75h75v75h75v75z" />
    <glyph glyph-name="braceleft" unicode="{" horiz-adv-x="450" 
d="M225 300v-225h150v-75h-225v75h-75v225h-75v75h75v225h75v75h225v-75h-150v-225h-75v-75h75z" />
    <glyph glyph-name="bar" unicode="|" horiz-adv-x="225" 
d="M150 675v-675h-150v675h150z" />
    <glyph glyph-name="braceright" unicode="}" horiz-adv-x="450" 
d="M225 300v75h-75v225h-150v75h225v-75h75v-225h75v-75h-75v-225h-75v-75h-225v75h150v225h75z" />
    <glyph glyph-name="asciitilde" unicode="~" horiz-adv-x="600" 
d="M150 300v-75h-150v75h75v75h225v-75h75v75h150v-75h-75v-75h-225v75h-75z" />
    <glyph glyph-name="uni00A0" unicode="&#xa0;" horiz-adv-x="75" 
 />
    <glyph glyph-name="exclamdown" unicode="&#xa1;" horiz-adv-x="375" 
d="M75 525h150v-150h-150v150zM75 300h150v-225h75v-225h-75v-75h-150v75h-75v225h75v225z" />
    <glyph glyph-name="cent" unicode="&#xa2;" 
d="M300 225v75h150v-75h-75v-75h-75v-150h-150v150h-75v75h-75v225h75v75h75v150h150v-150h75v-75h75v-75h-150v75h-150v-225h150z" />
    <glyph glyph-name="sterling" unicode="&#xa3;" horiz-adv-x="600" 
d="M375 75v150h150v-150h-75v-75h-450v75h75v225h-75v75h75v225h75v75h300v-75h75v-150h-150v150h-150v-225h150v-75h-150v-225h150z" />
    <glyph glyph-name="yen" unicode="&#xa5;" 
d="M300 75v-75h-150v75h-150v75h150v75h-150v75h75v75h-75v300h150v-300h150v300h150v-300h-75v-75h75v-75h-150v-75h150v-75h-150z" />
    <glyph glyph-name="brokenbar" unicode="&#xa6;" horiz-adv-x="225" 
d="M150 0h-150v300h150v-300zM150 375h-150v300h150v-300z" />
    <glyph glyph-name="section" unicode="&#xa7;" 
d="M375 600h75v-75h-150v75h-150v-150h225v-75h75v-300h-75v-75h75v-150h-75v-75h-300v75h-75v75h150v-75h150v150h-225v75h-75v300h75v75h-75v150h75v75h300v-75zM300 75v300h-150v-300h150z" />
    <glyph glyph-name="dieresis" unicode="&#xa8;" 
d="M150 525h-150v150h150v-150zM450 525h-150v150h150v-150z" />
    <glyph glyph-name="copyright" unicode="&#xa9;" horiz-adv-x="675" 
d="M450 225h-75v75h75v-75zM450 375h-75v75h75v-75zM225 450v-225h-75v225h75zM225 450v75h150v-75h-150zM225 225h150v-75h-150v75zM450 75v75h75v-75h-75zM525 150v375h75v-375h-75zM525 525h-75v75h75v-75zM150 75h-75v75h75v-75zM450 75v-75h-300v75h300zM75 150h-75
v375h75v-375zM75 525v75h75v-75h-75zM450 675v-75h-300v75h300z" />
    <glyph glyph-name="ordfeminine" unicode="&#xaa;" 
d="M150 225h150v150h-150v-150zM75 600v75h300v-75h75v-450h-375v75h-75v150h75v75h225v150h-150v-75h-150v75h75z" />
    <glyph glyph-name="guillemotleft" unicode="&#xab;" horiz-adv-x="675" 
d="M150 150v75h-75v75h-75v75h75v75h75v75h150v-75h-75v-75h-75v-75h75v-75h75v-75h-150zM450 150v75h-75v75h-75v75h75v75h75v75h150v-75h-75v-75h-75v-75h75v-75h75v-75h-150z" />
    <glyph glyph-name="logicalnot" unicode="&#xac;" 
d="M0 300v75h450v-225h-150v150h-300z" />
    <glyph glyph-name="uni00AD" unicode="&#xad;" horiz-adv-x="375" 
d="M0 300v75h300v-75h-300z" />
    <glyph glyph-name="registered" unicode="&#xae;" horiz-adv-x="675" 
d="M450 675v-75h-300v75h300zM75 525v75h75v-75h-75zM75 150h-75v375h75v-375zM450 75v-75h-300v75h300zM150 75h-75v75h75v-75zM525 525h-75v75h75v-75zM525 150v375h75v-375h-75zM450 75v75h75v-75h-75zM225 375h150v-75h-150v-150h-75v375h225v-75h-150v-75zM450 375h-75
v75h75v-75zM450 150h-75v150h75v-150z" />
    <glyph glyph-name="degree" unicode="&#xb0;" horiz-adv-x="375" 
d="M225 600h75v-150h-75v150zM75 600v75h150v-75h-150zM75 450h-75v150h75v-150zM225 450v-75h-150v75h150z" />
    <glyph glyph-name="plusminus" unicode="&#xb1;" 
d="M0 300v75h150v150h150v-150h150v-75h-150v-150h-150v150h-150zM0 0v75h450v-75h-450z" />
    <glyph glyph-name="acute" unicode="&#xb4;" horiz-adv-x="300" 
d="M75 600v75h150v-75h-75v-75h-150v75h75z" />
    <glyph glyph-name="mu" unicode="&#xb5;" 
d="M300 525h150v-450h-75v-75h-225v-225h-150v750h150v-450h150v450z" />
    <glyph glyph-name="paragraph" unicode="&#xb6;" horiz-adv-x="600" 
d="M300 0h-150v300h-75v75h-75v225h75v75h450v-675h-150v600h-75v-600z" />
    <glyph glyph-name="periodcentered" unicode="&#xb7;" horiz-adv-x="225" 
d="M150 225h-150v150h150v-150z" />
    <glyph glyph-name="cedilla" unicode="&#xb8;" horiz-adv-x="450" 
d="M300 -75h75v-75h-75v-75h-300v75h225v75h-75v75h150v-75z" />
    <glyph glyph-name="ordmasculine" unicode="&#xba;" 
d="M150 225h150v375h-150v-375zM375 225v-75h-300v75h-75v375h75v75h300v-75h75v-375h-75z" />
    <glyph glyph-name="guillemotright" unicode="&#xbb;" horiz-adv-x="675" 
d="M0 150v75h75v75h75v75h-75v75h-75v75h150v-75h75v-75h75v-75h-75v-75h-75v-75h-150zM300 150v75h75v75h75v75h-75v75h-75v75h150v-75h75v-75h75v-75h-75v-75h-75v-75h-150z" />
    <glyph glyph-name="questiondown" unicode="&#xbf;" 
d="M150 450h150v-150h-150v150zM300 225v-75h-75v-75h-75v-225h150v150h150v-150h-75v-75h-300v75h-75v225h75v75h75v75h150z" />
    <glyph glyph-name="Agrave" unicode="&#xc0;" 
d="M150 300h150v300h-150v-300zM300 225h-150v-225h-150v600h75v75h300v-75h75v-600h-150v225zM300 825v-75h-150v75h-75v75h150v-75h75z" />
    <glyph glyph-name="Aacute" unicode="&#xc1;" 
d="M300 600h-150v-300h150v300zM150 0h-150v600h75v75h300v-75h75v-600h-150v225h-150v-225zM225 825v75h150v-75h-75v-75h-150v75h75z" />
    <glyph glyph-name="Acircumflex" unicode="&#xc2;" 
d="M150 300h150v300h-150v-300zM300 225h-150v-225h-150v600h75v75h300v-75h75v-600h-150v225zM75 900h75v75h150v-75h75v-75h75v-75h-150v75h-150v-75h-150v75h75v75z" />
    <glyph glyph-name="Atilde" unicode="&#xc3;" 
d="M150 300h150v300h-150v-300zM300 225h-150v-225h-150v600h75v75h300v-75h75v-600h-150v225zM150 825v-75h-150v75h75v75h225v-75h75v75h150v-75h-75v-75h-225v75h-75z" />
    <glyph glyph-name="Adieresis" unicode="&#xc4;" 
d="M150 300h150v300h-150v-300zM375 675v-75h75v-600h-150v225h-150v-225h-150v600h75v75h300zM300 750v150h150v-150h-150zM150 900v-150h-150v150h150z" />
    <glyph glyph-name="Aring" unicode="&#xc5;" 
d="M150 300h150v300h-150v-300zM300 225h-150v-225h-150v600h75v75h300v-75h75v-600h-150v225zM150 825h150v75h-150v-75zM375 825v-75h-300v75h-75v75h75v75h300v-75h75v-75h-75z" />
    <glyph glyph-name="AE" unicode="&#xc6;" horiz-adv-x="600" 
d="M225 300v300h-75v-300h75zM375 375h150v-75h-150v-225h150v-75h-300v225h-75v-225h-150v600h75v75h450v-75h-150v-225z" />
    <glyph glyph-name="Ccedilla" unicode="&#xc7;" 
d="M150 0h-75v75h-75v525h75v75h300v-75h75v-150h-150v150h-150v-525h150v150h150v-150h-75v-75h-75v-75h75v-75h-75v-75h-300v75h225v75h-75v75z" />
    <glyph glyph-name="Egrave" unicode="&#xc8;" 
d="M150 75h300v-75h-450v675h450v-75h-300v-225h225v-75h-225v-225zM300 825v-75h-150v75h-75v75h150v-75h75z" />
    <glyph glyph-name="Eacute" unicode="&#xc9;" 
d="M150 75h300v-75h-450v675h450v-75h-300v-225h225v-75h-225v-225zM225 825v75h150v-75h-75v-75h-150v75h75z" />
    <glyph glyph-name="Ecircumflex" unicode="&#xca;" 
d="M150 75h300v-75h-450v675h450v-75h-300v-225h225v-75h-225v-225zM75 900h75v75h150v-75h75v-75h75v-75h-150v75h-150v-75h-150v75h75v75z" />
    <glyph glyph-name="Edieresis" unicode="&#xcb;" 
d="M150 75h300v-75h-450v675h450v-75h-300v-225h225v-75h-225v-225zM150 750h-150v150h150v-150zM450 750h-150v150h150v-150z" />
    <glyph glyph-name="Igrave" unicode="&#xcc;" 
d="M150 600h-150v75h450v-75h-150v-525h150v-75h-450v75h150v525zM300 825v-75h-150v75h-75v75h150v-75h75z" />
    <glyph glyph-name="Iacute" unicode="&#xcd;" 
d="M150 600h-150v75h450v-75h-150v-525h150v-75h-450v75h150v525zM225 825v75h150v-75h-75v-75h-150v75h75z" />
    <glyph glyph-name="Icircumflex" unicode="&#xce;" 
d="M150 600h-150v75h450v-75h-150v-525h150v-75h-450v75h150v525zM75 900h75v75h150v-75h75v-75h75v-75h-150v75h-150v-75h-150v75h75v75z" />
    <glyph glyph-name="Idieresis" unicode="&#xcf;" 
d="M150 600h-150v75h450v-75h-150v-525h150v-75h-450v75h150v525zM150 750h-150v150h150v-150zM450 750h-150v150h150v-150z" />
    <glyph glyph-name="Eth" unicode="&#xd0;" horiz-adv-x="600" 
d="M75 375v300h375v-75h75v-525h-75v-75h-375v300h-75v75h75zM225 375h75v-75h-75v-225h150v525h-150v-225z" />
    <glyph glyph-name="Ntilde" unicode="&#xd1;" 
d="M150 375v-375h-150v675h150v-150h75v-150h75v300h150v-675h-150v225h-75v150h-75zM150 825v-75h-150v75h75v75h225v-75h75v75h150v-75h-75v-75h-225v75h-75z" />
    <glyph glyph-name="Ograve" unicode="&#xd2;" 
d="M150 75h150v525h-150v-525zM375 75v-75h-300v75h-75v525h75v75h300v-75h75v-525h-75zM300 825v-75h-150v75h-75v75h150v-75h75z" />
    <glyph glyph-name="Oacute" unicode="&#xd3;" 
d="M150 75h150v525h-150v-525zM375 75v-75h-300v75h-75v525h75v75h300v-75h75v-525h-75zM225 825v75h150v-75h-75v-75h-150v75h75z" />
    <glyph glyph-name="Ocircumflex" unicode="&#xd4;" 
d="M150 75h150v525h-150v-525zM375 75v-75h-300v75h-75v525h75v75h300v-75h75v-525h-75zM75 900h75v75h150v-75h75v-75h75v-75h-150v75h-150v-75h-150v75h75v75z" />
    <glyph glyph-name="Otilde" unicode="&#xd5;" 
d="M150 75h150v525h-150v-525zM375 75v-75h-300v75h-75v525h75v75h300v-75h75v-525h-75zM150 825v-75h-150v75h75v75h225v-75h75v75h150v-75h-75v-75h-225v75h-75z" />
    <glyph glyph-name="Odieresis" unicode="&#xd6;" 
d="M150 75h150v525h-150v-525zM375 75v-75h-300v75h-75v525h75v75h300v-75h75v-525h-75zM300 750v150h150v-150h-150zM150 900v-150h-150v150h150z" />
    <glyph glyph-name="multiply" unicode="&#xd7;" 
d="M75 375h-75v75h150v-75h150v75h150v-75h-75v-75h-75v-75h75v-75h75v-75h-150v75h-150v-75h-150v75h75v75h75v75h-75v75z" />
    <glyph glyph-name="Oslash" unicode="&#xd8;" horiz-adv-x="675" 
d="M300 300v-75h-75v-150h150v225h-75zM375 450v150h-150v-225h75v75h75zM75 75v-75h-75v150h75v450h75v75h300v-75h75v75h75v-150h-75v-450h-75v-75h-300v75h-75z" />
    <glyph glyph-name="Ugrave" unicode="&#xd9;" 
d="M75 75h-75v600h150v-600h150v600h150v-600h-75v-75h-300v75zM300 825v-75h-150v75h-75v75h150v-75h75z" />
    <glyph glyph-name="Uacute" unicode="&#xda;" 
d="M375 0h-300v75h-75v600h150v-600h150v600h150v-600h-75v-75zM225 825v75h150v-75h-75v-75h-150v75h75z" />
    <glyph glyph-name="Ucircumflex" unicode="&#xdb;" 
d="M75 75h-75v600h150v-600h150v600h150v-600h-75v-75h-300v75zM75 900h75v75h150v-75h75v-75h75v-75h-150v75h-150v-75h-150v75h75v75z" />
    <glyph glyph-name="Udieresis" unicode="&#xdc;" 
d="M75 75h-75v600h150v-600h150v600h150v-600h-75v-75h-300v75zM300 750v150h150v-150h-150zM150 900v-150h-150v150h150z" />
    <glyph glyph-name="Yacute" unicode="&#xdd;" 
d="M75 375h-75v300h150v-300h150v300h150v-300h-75v-75h-75v-300h-150v300h-75v75zM225 825v75h150v-75h-75v-75h-150v75h75z" />
    <glyph glyph-name="Thorn" unicode="&#xde;" 
d="M150 225h150v225h-150v-225zM150 150v-150h-150v675h150v-150h225v-75h75v-225h-75v-75h-225z" />
    <glyph glyph-name="germandbls" unicode="&#xdf;" 
d="M75 675h300v-75h75v-225h-75v-75h75v-225h-75v-75h-150v75h75v225h-75v75h75v225h-150v-600h-150v600h75v75z" />
    <glyph glyph-name="agrave" unicode="&#xe0;" 
d="M150 75h150v150h-150v-150zM75 450v75h300v-75h75v-450h-375v75h-75v150h75v75h225v150h-150v-75h-150v75h75zM300 675v-75h-150v75h-75v75h150v-75h75z" />
    <glyph glyph-name="aacute" unicode="&#xe1;" 
d="M150 75h150v150h-150v-150zM75 450v75h300v-75h75v-450h-375v75h-75v150h75v75h225v150h-150v-75h-150v75h75zM225 675v75h150v-75h-75v-75h-150v75h75z" />
    <glyph glyph-name="acircumflex" unicode="&#xe2;" 
d="M150 75h150v150h-150v-150zM75 450v75h300v-75h75v-450h-375v75h-75v150h75v75h225v150h-150v-75h-150v75h75zM75 750h75v75h150v-75h75v-75h75v-75h-150v75h-150v-75h-150v75h75v75z" />
    <glyph glyph-name="atilde" unicode="&#xe3;" 
d="M150 75h150v150h-150v-150zM75 450v75h300v-75h75v-450h-375v75h-75v150h75v75h225v150h-150v-75h-150v75h75zM150 675v-75h-150v75h75v75h225v-75h75v75h150v-75h-75v-75h-225v75h-75z" />
    <glyph glyph-name="adieresis" unicode="&#xe4;" 
d="M150 75h150v150h-150v-150zM75 450v75h300v-75h75v-450h-375v75h-75v150h75v75h225v150h-150v-75h-150v75h75zM300 600v150h150v-150h-150zM150 750v-150h-150v150h150z" />
    <glyph glyph-name="aring" unicode="&#xe5;" 
d="M150 75h150v150h-150v-150zM75 450v75h300v-75h75v-450h-375v75h-75v150h75v75h225v150h-150v-75h-150v75h75zM150 675h150v75h-150v-75zM375 675v-75h-300v75h-75v75h75v75h300v-75h75v-75h-75z" />
    <glyph glyph-name="ae" unicode="&#xe6;" horiz-adv-x="675" 
d="M375 450v-150h75v150h-75zM225 75v150h-75v-150h75zM375 450v75h150v-75h75v-225h-225v-150h75v75h150v-75h-75v-75h-225v75h-75v-75h-150v75h-75v150h75v75h150v150h-75v-75h-150v75h75v75h225v-75h75z" />
    <glyph glyph-name="ccedilla" unicode="&#xe7;" 
d="M150 0h-75v75h-75v375h75v75h300v-75h75v-150h-150v150h-150v-375h150v150h150v-150h-75v-75h-75v-75h75v-75h-75v-75h-300v75h225v75h-75v75z" />
    <glyph glyph-name="egrave" unicode="&#xe8;" 
d="M300 675v-75h-150v75h-75v75h150v-75h75zM150 300h150v150h-150v-150zM375 75v-75h-300v75h-75v375h75v75h300v-75h75v-225h-300v-150h150v75h150v-75h-75z" />
    <glyph glyph-name="eacute" unicode="&#xe9;" 
d="M225 675v75h150v-75h-75v-75h-150v75h75zM150 300h150v150h-150v-150zM375 75v-75h-300v75h-75v375h75v75h300v-75h75v-225h-300v-150h150v75h150v-75h-75z" />
    <glyph glyph-name="ecircumflex" unicode="&#xea;" 
d="M75 750h75v75h150v-75h75v-75h75v-75h-150v75h-150v-75h-150v75h75v75zM150 300h150v150h-150v-150zM375 75v-75h-300v75h-75v375h75v75h300v-75h75v-225h-300v-150h150v75h150v-75h-75z" />
    <glyph glyph-name="edieresis" unicode="&#xeb;" 
d="M150 600h-150v150h150v-150zM450 600h-150v150h150v-150zM150 300h150v150h-150v-150zM375 75v-75h-300v75h-75v375h75v75h300v-75h75v-225h-300v-150h150v75h150v-75h-75z" />
    <glyph glyph-name="igrave" unicode="&#xec;" 
d="M150 450h-150v75h300v-450h150v-75h-450v75h150v375zM300 675v-75h-150v75h-75v75h150v-75h75z" />
    <glyph glyph-name="iacute" unicode="&#xed;" 
d="M150 450h-150v75h300v-450h150v-75h-450v75h150v375zM225 675v75h150v-75h-75v-75h-150v75h75z" />
    <glyph glyph-name="icircumflex" unicode="&#xee;" 
d="M150 450h-150v75h300v-450h150v-75h-450v75h150v375zM75 750h75v75h150v-75h75v-75h75v-75h-150v75h-150v-75h-150v75h75v75z" />
    <glyph glyph-name="idieresis" unicode="&#xef;" 
d="M150 450h-150v75h300v-450h150v-75h-450v75h150v375zM150 600h-150v150h150v-150zM450 600h-150v150h150v-150z" />
    <glyph glyph-name="eth" unicode="&#xf0;" horiz-adv-x="600" 
d="M150 75h150v300h-150v-300zM450 525v-450h-75v-75h-300v75h-75v300h75v75h225v75h-150v75h75v75h150v-75h150v-75h-75z" />
    <glyph glyph-name="ntilde" unicode="&#xf1;" 
d="M150 675v-75h-150v75h75v75h225v-75h75v75h150v-75h-75v-75h-225v75h-75zM150 450v-450h-150v525h375v-75h75v-450h-150v450h-150z" />
    <glyph glyph-name="ograve" unicode="&#xf2;" 
d="M300 675v-75h-150v75h-75v75h150v-75h75zM150 75h150v375h-150v-375zM375 75v-75h-300v75h-75v375h75v75h300v-75h75v-375h-75z" />
    <glyph glyph-name="oacute" unicode="&#xf3;" 
d="M225 675v75h150v-75h-75v-75h-150v75h75zM150 75h150v375h-150v-375zM375 75v-75h-300v75h-75v375h75v75h300v-75h75v-375h-75z" />
    <glyph glyph-name="ocircumflex" unicode="&#xf4;" 
d="M75 750h75v75h150v-75h75v-75h75v-75h-150v75h-150v-75h-150v75h75v75zM150 75h150v375h-150v-375zM375 75v-75h-300v75h-75v375h75v75h300v-75h75v-375h-75z" />
    <glyph glyph-name="otilde" unicode="&#xf5;" 
d="M150 675v-75h-150v75h75v75h225v-75h75v75h150v-75h-75v-75h-225v75h-75zM150 75h150v375h-150v-375zM375 75v-75h-300v75h-75v375h75v75h300v-75h75v-375h-75z" />
    <glyph glyph-name="odieresis" unicode="&#xf6;" 
d="M300 600v150h150v-150h-150zM150 750v-150h-150v150h150zM150 75h150v375h-150v-375zM375 75v-75h-300v75h-75v375h75v75h300v-75h75v-375h-75z" />
    <glyph glyph-name="divide" unicode="&#xf7;" 
d="M300 75h-150v150h150v-150zM300 450h-150v150h150v-150zM450 300h-450v75h450v-75z" />
    <glyph glyph-name="oslash" unicode="&#xf8;" horiz-adv-x="675" 
d="M300 225v-75h-75v-75h150v150h-75zM375 375v75h-150v-150h75v75h75zM75 75v-75h-75v150h75v300h75v75h300v-75h75v75h75v-150h-75v-300h-75v-75h-300v75h-75z" />
    <glyph glyph-name="ugrave" unicode="&#xf9;" 
d="M75 75h-75v450h150v-450h150v450h150v-525h-375v75zM300 675v-75h-150v75h-75v75h150v-75h75z" />
    <glyph glyph-name="uacute" unicode="&#xfa;" 
d="M450 0h-375v75h-75v450h150v-450h150v450h150v-525zM225 675v75h150v-75h-75v-75h-150v75h75z" />
    <glyph glyph-name="ucircumflex" unicode="&#xfb;" 
d="M75 75h-75v450h150v-450h150v450h150v-525h-375v75zM75 750h75v75h150v-75h75v-75h75v-75h-150v75h-150v-75h-150v75h75v75z" />
    <glyph glyph-name="udieresis" unicode="&#xfc;" 
d="M75 75h-75v450h150v-450h150v450h150v-525h-375v75zM300 600v150h150v-150h-150zM150 750v-150h-150v150h150z" />
    <glyph glyph-name="yacute" unicode="&#xfd;" 
d="M150 -150h150v150h-225v75h-75v450h150v-450h150v450h150v-675h-75v-75h-300v75h-75v75h150v-75zM225 675v75h150v-75h-75v-75h-150v75h75z" />
    <glyph glyph-name="thorn" unicode="&#xfe;" 
d="M150 75h150v375h-150v-375zM150 525h225v-75h75v-375h-75v-75h-225v-150h-150v825h150v-150z" />
    <glyph glyph-name="ydieresis" unicode="&#xff;" 
d="M150 -150h150v150h-225v75h-75v450h150v-450h150v450h150v-675h-75v-75h-300v75h-75v75h150v-75zM300 600v150h150v-150h-150zM150 750v-150h-150v150h150z" />
    <glyph glyph-name="Ccaron" unicode="&#x10c;" 
d="M300 75v150h150v-150h-75v-75h-300v75h-75v525h75v75h300v-75h75v-150h-150v150h-150v-525h150zM75 900h-75v75h150v-75h150v75h150v-75h-75v-75h-75v-75h-150v75h-75v75z" />
    <glyph glyph-name="ccaron" unicode="&#x10d;" 
d="M300 75v150h150v-150h-75v-75h-300v75h-75v375h75v75h300v-75h75v-150h-150v150h-150v-375h150zM75 750h-75v75h150v-75h150v75h150v-75h-75v-75h-75v-75h-150v75h-75v75z" />
    <glyph glyph-name="Dcaron" unicode="&#x10e;" 
d="M150 75h150v525h-150v-525zM375 75v-75h-375v675h375v-75h75v-525h-75zM75 900h-75v75h150v-75h150v75h150v-75h-75v-75h-75v-75h-150v75h-75v75z" />
    <glyph glyph-name="dcaron" unicode="&#x10f;" horiz-adv-x="600" 
d="M150 75h75v375h-75v-375zM375 0h-300v75h-75v375h75v75h150v150h150v-675zM450 450v225h75v-225h-75z" />
    <glyph glyph-name="Ecaron" unicode="&#x11a;" 
d="M150 75h300v-75h-450v675h450v-75h-300v-225h225v-75h-225v-225zM75 900h-75v75h150v-75h150v75h150v-75h-75v-75h-75v-75h-150v75h-75v75z" />
    <glyph glyph-name="ecaron" unicode="&#x11b;" 
d="M75 750h-75v75h150v-75h150v75h150v-75h-75v-75h-75v-75h-150v75h-75v75zM150 300h150v150h-150v-150zM375 75v-75h-300v75h-75v375h75v75h300v-75h75v-225h-300v-150h150v75h150v-75h-75z" />
    <glyph glyph-name="dotlessi" unicode="&#x131;" 
d="M150 450h-150v75h300v-450h150v-75h-450v75h150v375z" />
    <glyph glyph-name="Ncaron" unicode="&#x147;" 
d="M150 375v-375h-150v675h150v-150h75v-150h75v300h150v-675h-150v225h-75v150h-75zM75 900h-75v75h150v-75h150v75h150v-75h-75v-75h-75v-75h-150v75h-75v75z" />
    <glyph glyph-name="ncaron" unicode="&#x148;" 
d="M150 450v-450h-150v525h375v-75h75v-450h-150v450h-150zM75 750h-75v75h150v-75h150v75h150v-75h-75v-75h-75v-75h-150v75h-75v75z" />
    <glyph glyph-name="OE" unicode="&#x152;" horiz-adv-x="600" 
d="M225 75v525h-75v-525h75zM375 375h150v-75h-150v-225h150v-75h-450v75h-75v525h75v75h450v-75h-150v-225z" />
    <glyph glyph-name="oe" unicode="&#x153;" horiz-adv-x="675" 
d="M375 450v-150h75v150h-75zM225 75v375h-75v-375h75zM375 450v75h150v-75h75v-225h-225v-150h75v75h150v-75h-75v-75h-225v75h-75v-75h-150v75h-75v375h75v75h225v-75h75z" />
    <glyph glyph-name="Rcaron" unicode="&#x158;" 
d="M150 375h150v225h-150v-225zM150 300v-300h-150v675h375v-75h75v-225h-75v-75h75v-300h-150v300h-150zM75 900h-75v75h150v-75h150v75h150v-75h-75v-75h-75v-75h-150v75h-75v75z" />
    <glyph glyph-name="rcaron" unicode="&#x159;" 
d="M150 450v-450h-150v525h375v-75h75v-150h-150v150h-150zM75 750h-75v75h150v-75h150v75h150v-75h-75v-75h-75v-75h-150v75h-75v75z" />
    <glyph glyph-name="Scaron" unicode="&#x160;" 
d="M375 600h75v-150h-150v150h-150v-225h225v-75h75v-225h-75v-75h-300v75h-75v150h150v-150h150v225h-225v75h-75v225h75v75h300v-75zM75 900h-75v75h150v-75h150v75h150v-75h-75v-75h-75v-75h-150v75h-75v75z" />
    <glyph glyph-name="scaron" unicode="&#x161;" 
d="M375 450h75v-75h-150v75h-150v-150h225v-75h75v-150h-75v-75h-300v75h-75v75h150v-75h150v150h-225v75h-75v150h75v75h300v-75zM75 750h-75v75h150v-75h150v75h150v-75h-75v-75h-75v-75h-150v75h-75v75z" />
    <glyph glyph-name="Tcaron" unicode="&#x164;" 
d="M150 600h-150v75h450v-75h-150v-600h-150v600zM75 900h-75v75h150v-75h150v75h150v-75h-75v-75h-75v-75h-150v75h-75v75z" />
    <glyph glyph-name="tcaron" unicode="&#x165;" horiz-adv-x="600" 
d="M0 450v75h75v150h150v-150h150v-75h-150v-375h150v-75h-225v75h-75v375h-75zM450 450v225h75v-225h-75z" />
    <glyph glyph-name="Uring" unicode="&#x16e;" 
d="M75 75h-75v600h150v-600h150v600h150v-600h-75v-75h-300v75zM150 825h150v75h-150v-75zM375 825v-75h-300v75h-75v75h75v75h300v-75h75v-75h-75z" />
    <glyph glyph-name="uring" unicode="&#x16f;" 
d="M300 75v450h150v-525h-375v75h-75v450h150v-450h150zM150 675h150v75h-150v-75zM375 675v-75h-300v75h-75v75h75v75h300v-75h75v-75h-75z" />
    <glyph glyph-name="Ydieresis" unicode="&#x178;" 
d="M75 375h-75v300h150v-300h150v300h150v-300h-75v-75h-75v-300h-150v300h-75v75zM300 750v150h150v-150h-150zM150 900v-150h-150v150h150z" />
    <glyph glyph-name="Zcaron" unicode="&#x17d;" 
d="M300 600h-300v75h450v-225h-75v-75h-75v-75h-75v-75h-75v-150h300v-75h-450v225h75v75h75v75h75v75h75v150zM75 900h-75v75h150v-75h150v75h150v-75h-75v-75h-75v-75h-150v75h-75v75z" />
    <glyph glyph-name="zcaron" unicode="&#x17e;" 
d="M300 450h-300v75h450v-150h-75v-75h-75v-75h-75v-75h-75v-75h300v-75h-450v150h75v75h75v75h75v75h75v75zM75 750h-75v75h150v-75h150v75h150v-75h-75v-75h-75v-75h-150v75h-75v75z" />
    <glyph glyph-name="florin" unicode="&#x192;" 
d="M150 450v150h75v75h225v-75h-150v-150h150v-75h-150v-450h-75v-75h-225v75h150v450h-150v75h150z" />
    <glyph glyph-name="circumflex" unicode="&#x2c6;" horiz-adv-x="600" 
d="M150 600h75v75h150v-75h75v-75h75v-75h-150v75h-150v-75h-150v75h75v75z" />
    <glyph glyph-name="caron" unicode="&#x2c7;" horiz-adv-x="600" 
d="M150 600h-75v75h150v-75h150v75h150v-75h-75v-75h-75v-75h-150v75h-75v75z" />
    <glyph glyph-name="breve" unicode="&#x2d8;" horiz-adv-x="600" 
d="M150 600h-75v75h150v-75h150v75h150v-75h-75v-75h-300v75z" />
    <glyph glyph-name="dotaccent" unicode="&#x2d9;" horiz-adv-x="600" 
d="M225 525h-150v150h150v-150z" />
    <glyph glyph-name="ring" unicode="&#x2da;" horiz-adv-x="600" 
d="M225 525h150v75h-150v-75zM450 525v-75h-300v75h-75v75h75v75h300v-75h75v-75h-75z" />
    <glyph glyph-name="ogonek" unicode="&#x2db;" horiz-adv-x="600" 
d="M150 0h150v-75h-75v-75h225v-75h-300v75h-75v75h75v75z" />
    <glyph glyph-name="tilde" unicode="&#x2dc;" horiz-adv-x="600" 
d="M225 600v-75h-150v75h75v75h225v-75h75v75h150v-75h-75v-75h-225v75h-75z" />
    <glyph glyph-name="hungarumlaut" unicode="&#x2dd;" horiz-adv-x="600" 
d="M150 600v75h150v-75h-75v-75h-150v75h75zM450 600v75h150v-75h-75v-75h-150v75h75z" />
    <glyph glyph-name="uni2000" unicode="&#x2000;" horiz-adv-x="600" 
 />
    <glyph glyph-name="uni2001" unicode="&#x2001;" horiz-adv-x="900" 
 />
    <glyph glyph-name="uni2002" unicode="&#x2002;" horiz-adv-x="600" 
 />
    <glyph glyph-name="uni2003" unicode="&#x2003;" horiz-adv-x="900" 
 />
    <glyph glyph-name="uni2004" unicode="&#x2004;" horiz-adv-x="450" 
 />
    <glyph glyph-name="uni2005" unicode="&#x2005;" horiz-adv-x="300" 
 />
    <glyph glyph-name="uni2006" unicode="&#x2006;" horiz-adv-x="150" 
 />
    <glyph glyph-name="uni2007" unicode="&#x2007;" horiz-adv-x="600" 
 />
    <glyph glyph-name="uni2008" unicode="&#x2008;" horiz-adv-x="300" 
 />
    <glyph glyph-name="uni2009" unicode="&#x2009;" horiz-adv-x="150" 
 />
    <glyph glyph-name="uni200A" unicode="&#x200a;" horiz-adv-x="67" 
 />
    <glyph glyph-name="uni200B" unicode="&#x200b;" horiz-adv-x="0" 
 />
    <glyph glyph-name="uni200C" unicode="&#x200c;" horiz-adv-x="0" 
 />
    <glyph glyph-name="uni200D" unicode="&#x200d;" horiz-adv-x="0" 
 />
    <glyph glyph-name="uni200E" unicode="&#x200e;" horiz-adv-x="0" 
 />
    <glyph glyph-name="uni200F" unicode="&#x200f;" horiz-adv-x="0" 
 />
    <glyph glyph-name="endash" unicode="&#x2013;" horiz-adv-x="375" 
d="M0 300v75h300v-75h-300z" />
    <glyph glyph-name="emdash" unicode="&#x2014;" horiz-adv-x="600" 
d="M0 300v75h600v-75h-600z" />
    <glyph glyph-name="quoteleft" unicode="&#x2018;" horiz-adv-x="225" 
d="M150 525v-150h-150v225h75v-75h75zM75 600v75h75v-75h-75z" />
    <glyph glyph-name="quoteright" unicode="&#x2019;" horiz-adv-x="225" 
d="M0 525v150h150v-225h-75v75h-75zM75 450v-75h-75v75h75z" />
    <glyph glyph-name="quotesinglbase" unicode="&#x201a;" horiz-adv-x="225" 
d="M0 0v150h150v-225h-75v75h-75zM75 -75v-75h-75v75h75z" />
    <glyph glyph-name="quotereversed" unicode="&#x201b;" horiz-adv-x="225" 
d="M150 525h-75v-75h-75v225h150v-150zM75 450h75v-75h-75v75z" />
    <glyph glyph-name="quotedblleft" unicode="&#x201c;" horiz-adv-x="450" 
d="M375 525v-150h-150v225h75v-75h75zM75 525h75v-150h-150v225h75v-75zM300 600v75h75v-75h-75zM75 600v75h75v-75h-75z" />
    <glyph glyph-name="quotedblright" unicode="&#x201d;" horiz-adv-x="450" 
d="M0 525v150h150v-225h-75v75h-75zM300 525h-75v150h150v-225h-75v75zM75 450v-75h-75v75h75zM300 450v-75h-75v75h75z" />
    <glyph glyph-name="quotedblbase" unicode="&#x201e;" horiz-adv-x="450" 
d="M0 0v150h150v-225h-75v75h-75zM300 0h-75v150h150v-225h-75v75zM75 -75v-75h-75v75h75zM300 -75v-75h-75v75h75z" />
    <glyph glyph-name="uni201F" unicode="&#x201f;" horiz-adv-x="450" 
d="M375 525h-75v-75h-75v225h150v-150zM75 525v-75h-75v225h150v-150h-75zM300 450h75v-75h-75v75zM75 450h75v-75h-75v75z" />
    <glyph glyph-name="dagger" unicode="&#x2020;" 
d="M300 0h-150v450h-150v75h150v150h150v-150h150v-75h-150v-450z" />
    <glyph glyph-name="daggerdbl" unicode="&#x2021;" 
d="M300 225h150v-75h-150v-150h-150v150h-150v75h150v225h-150v75h150v150h150v-150h150v-75h-150v-225z" />
    <glyph glyph-name="bullet" unicode="&#x2022;" horiz-adv-x="375" 
d="M225 375h75v-150h-75v-75h-150v75h-75v150h75v75h150v-75z" />
    <glyph glyph-name="ellipsis" unicode="&#x2026;" horiz-adv-x="675" 
d="M150 0h-150v150h150v-150zM375 0h-150v150h150v-150zM600 0h-150v150h150v-150z" />
    <glyph glyph-name="perthousand" unicode="&#x2030;" horiz-adv-x="1125" 
d="M975 225h-150v75h150v-75zM975 0h-150v75h150v-75zM825 75h-75v150h75v-150zM1050 75h-75v150h75v-150zM600 225h-150v75h150v-75zM600 0h-150v75h150v-75zM225 375h-150v75h150v-75zM225 600h-150v75h150v-75zM300 450h-75v150h75v-150zM450 75h-75v150h75v-150zM75 450
h-75v150h75v-150zM675 75h-75v150h75v-150zM525 525v-75h-75v-75h-75v-75h-75v-75h-75v-75h-75v75h75v75h75v75h75v75h75v75h75zM525 525v75h75v-75h-75zM150 150v-75h-75v75h75z" />
    <glyph glyph-name="guilsinglleft" unicode="&#x2039;" horiz-adv-x="375" 
d="M150 150v75h-75v75h-75v75h75v75h75v75h150v-75h-75v-75h-75v-75h75v-75h75v-75h-150z" />
    <glyph glyph-name="guilsinglright" unicode="&#x203a;" horiz-adv-x="375" 
d="M0 150v75h75v75h75v75h-75v75h-75v75h150v-75h75v-75h75v-75h-75v-75h-75v-75h-150z" />
    <glyph glyph-name="Euro" unicode="&#x20ac;" horiz-adv-x="600" 
d="M375 225h-150v-150h150v150zM375 450v150h-150v-150h150zM375 225h150v-150h-75v-75h-300v75h-75v150h-75v75h75v75h-75v75h75v150h75v75h300v-75h75v-150h-150v-75h-150v-75h150v-75z" />
    <glyph glyph-name="trademark" unicode="&#x2122;" horiz-adv-x="750" 
d="M75 600h-75v75h225v-75h-75v-225h-75v225zM375 600h75v-75h-75v-150h-75v300h75v-75zM600 600v75h75v-300h-75v150h-75v75h75zM450 450v75h75v-75h-75z" />
    <glyph glyph-name="uni2661" unicode="&#x2661;" horiz-adv-x="750" 
d="M300 75h75v-75h-75v75zM300 75h-75v75h75v-75zM225 150h-75v75h75v-75zM150 225h-75v75h75v-75zM75 300h-75v300h75v-300zM375 75v75h75v-75h-75zM450 150v75h75v-75h-75zM525 225v75h75v-75h-75zM600 300v300h-150v-75h-75v-75h-75v75h-75v75h-150v75h150v-75h75v-75h75
v75h75v75h150v-75h75v-300h-75z" />
    <glyph glyph-name="heart" unicode="&#x2665;" horiz-adv-x="750" 
d="M375 525v75h75v75h150v-75h75v-300h-75v-75h-75v-75h-75v-75h-75v-75h-75v75h-75v75h-75v75h-75v75h-75v300h75v75h150v-75h75v-75h75z" />
    <glyph glyph-name="uni2764" unicode="&#x2764;" horiz-adv-x="750" 
d="M375 525v75h75v75h150v-75h75v-300h-75v-75h-75v-75h-75v-75h-75v-75h-75v75h-75v75h-75v75h-75v75h-75v300h75v75h150v-75h75v-75h75z" />
    <glyph glyph-name="uni2765" unicode="&#x2765;" horiz-adv-x="750" 
d="M150 375h-75v75h-75v150h75v75h300v-75h75v-75h75v-75h75v-75h75v-75h-75v-75h-75v-75h-75v-75h-75v-75h-300v75h-75v150h75v75h75v75z" />
    <glyph glyph-name="u1F494" unicode="&#x1f494;" horiz-adv-x="825" 
d="M300 0h-75v75h-75v75h-75v75h-75v300h75v75h150v-75h75v-75h75v-75h-75v-75h75v-75h-75v-225zM750 225v-75h-75v-75h-75v-75h-75v225h75v75h-75v75h75v75h-75v75h75v75h150v-75h75v-300h-75z" />
  </font>
</defs>
</svg>
